<mxfile host="app.diagrams.net" agent="Mozilla/5.0 (Windows NT 10.0; Win64; x64) AppleWebKit/537.36 (KHTML, like Gecko) Chrome/139.0.0.0 Safari/537.36" version="28.0.9">
  <diagram name="Page-1" id="LR3BldGAS1I6-_U-Jkwt">
    <mxGraphModel dx="997" dy="567" grid="1" gridSize="10" guides="1" tooltips="1" connect="1" arrows="1" fold="1" page="1" pageScale="1" pageWidth="1100" pageHeight="850" math="0" shadow="0">
      <root>
        <mxCell id="0" />
        <mxCell id="1" parent="0" />
        <mxCell id="t4OKsHLaaIyFasRY0i-n-60" value="" style="rounded=0;whiteSpace=wrap;html=1;" parent="1" vertex="1">
          <mxGeometry x="40" y="80" width="1000" height="570" as="geometry" />
        </mxCell>
        <mxCell id="t4OKsHLaaIyFasRY0i-n-1" value="" style="rounded=0;whiteSpace=wrap;html=1;" parent="1" vertex="1">
          <mxGeometry x="380" y="130" width="170" height="60" as="geometry" />
        </mxCell>
        <mxCell id="t4OKsHLaaIyFasRY0i-n-2" value="Kepala Desa" style="text;html=1;align=center;verticalAlign=middle;whiteSpace=wrap;rounded=0;" parent="1" vertex="1">
          <mxGeometry x="400" y="130" width="120" height="30" as="geometry" />
        </mxCell>
        <mxCell id="t4OKsHLaaIyFasRY0i-n-3" value="&lt;font style=&quot;font-size: 13px;&quot;&gt;ALIT NURMANSYAH&lt;/font&gt;" style="text;html=1;align=center;verticalAlign=middle;whiteSpace=wrap;rounded=0;" parent="1" vertex="1">
          <mxGeometry x="350" y="160" width="220" height="30" as="geometry" />
        </mxCell>
        <mxCell id="t4OKsHLaaIyFasRY0i-n-4" value="" style="endArrow=none;html=1;rounded=0;" parent="1" edge="1">
          <mxGeometry width="50" height="50" relative="1" as="geometry">
            <mxPoint x="450" y="350" as="sourcePoint" />
            <mxPoint x="450" y="190" as="targetPoint" />
          </mxGeometry>
        </mxCell>
        <mxCell id="t4OKsHLaaIyFasRY0i-n-5" value="" style="endArrow=none;html=1;rounded=0;" parent="1" edge="1">
          <mxGeometry width="50" height="50" relative="1" as="geometry">
            <mxPoint x="450" y="250" as="sourcePoint" />
            <mxPoint x="580" y="250" as="targetPoint" />
          </mxGeometry>
        </mxCell>
        <mxCell id="t4OKsHLaaIyFasRY0i-n-9" value="" style="rounded=0;whiteSpace=wrap;html=1;" parent="1" vertex="1">
          <mxGeometry x="580" y="220" width="170" height="60" as="geometry" />
        </mxCell>
        <mxCell id="t4OKsHLaaIyFasRY0i-n-10" value="Sekretaris Desa" style="text;html=1;align=center;verticalAlign=middle;whiteSpace=wrap;rounded=0;" parent="1" vertex="1">
          <mxGeometry x="605" y="220" width="120" height="30" as="geometry" />
        </mxCell>
        <mxCell id="t4OKsHLaaIyFasRY0i-n-11" value="&lt;span style=&quot;font-size: 13px;&quot;&gt;WINIARTIE ARIEF A&lt;/span&gt;" style="text;html=1;align=center;verticalAlign=middle;whiteSpace=wrap;rounded=0;" parent="1" vertex="1">
          <mxGeometry x="555" y="250" width="220" height="30" as="geometry" />
        </mxCell>
        <mxCell id="t4OKsHLaaIyFasRY0i-n-12" value="" style="rounded=0;whiteSpace=wrap;html=1;" parent="1" vertex="1">
          <mxGeometry x="800" y="220" width="170" height="60" as="geometry" />
        </mxCell>
        <mxCell id="t4OKsHLaaIyFasRY0i-n-13" value="" style="endArrow=none;html=1;rounded=0;exitX=0.889;exitY=-0.008;exitDx=0;exitDy=0;exitPerimeter=0;" parent="1" source="t4OKsHLaaIyFasRY0i-n-11" edge="1">
          <mxGeometry width="50" height="50" relative="1" as="geometry">
            <mxPoint x="710" y="249" as="sourcePoint" />
            <mxPoint x="800" y="249" as="targetPoint" />
          </mxGeometry>
        </mxCell>
        <mxCell id="t4OKsHLaaIyFasRY0i-n-14" value="Kaur Perencanaan" style="text;html=1;align=center;verticalAlign=middle;whiteSpace=wrap;rounded=0;" parent="1" vertex="1">
          <mxGeometry x="825" y="220" width="120" height="30" as="geometry" />
        </mxCell>
        <mxCell id="t4OKsHLaaIyFasRY0i-n-15" value="&lt;span style=&quot;font-size: 13px;&quot;&gt;M HIBAN FAUZAN&lt;/span&gt;" style="text;html=1;align=center;verticalAlign=middle;whiteSpace=wrap;rounded=0;" parent="1" vertex="1">
          <mxGeometry x="775" y="250" width="220" height="30" as="geometry" />
        </mxCell>
        <mxCell id="t4OKsHLaaIyFasRY0i-n-16" value="" style="endArrow=none;html=1;rounded=0;entryX=0;entryY=0.25;entryDx=0;entryDy=0;" parent="1" target="t4OKsHLaaIyFasRY0i-n-24" edge="1">
          <mxGeometry width="50" height="50" relative="1" as="geometry">
            <mxPoint x="774.9999999999999" y="250" as="sourcePoint" />
            <mxPoint x="775" y="450" as="targetPoint" />
          </mxGeometry>
        </mxCell>
        <mxCell id="t4OKsHLaaIyFasRY0i-n-17" value="" style="rounded=0;whiteSpace=wrap;html=1;" parent="1" vertex="1">
          <mxGeometry x="800" y="310" width="170" height="60" as="geometry" />
        </mxCell>
        <mxCell id="t4OKsHLaaIyFasRY0i-n-18" value="" style="endArrow=none;html=1;rounded=0;exitX=0;exitY=0.5;exitDx=0;exitDy=0;" parent="1" source="t4OKsHLaaIyFasRY0i-n-17" edge="1">
          <mxGeometry width="50" height="50" relative="1" as="geometry">
            <mxPoint x="805" y="340" as="sourcePoint" />
            <mxPoint x="775" y="340" as="targetPoint" />
          </mxGeometry>
        </mxCell>
        <mxCell id="t4OKsHLaaIyFasRY0i-n-19" value="Kaur Keuangan" style="text;html=1;align=center;verticalAlign=middle;whiteSpace=wrap;rounded=0;" parent="1" vertex="1">
          <mxGeometry x="825" y="310" width="120" height="30" as="geometry" />
        </mxCell>
        <mxCell id="t4OKsHLaaIyFasRY0i-n-20" value="&lt;span style=&quot;font-size: 13px;&quot;&gt;MAYA ROSMAYANTI&lt;/span&gt;" style="text;html=1;align=center;verticalAlign=middle;whiteSpace=wrap;rounded=0;" parent="1" vertex="1">
          <mxGeometry x="775" y="340" width="220" height="30" as="geometry" />
        </mxCell>
        <mxCell id="t4OKsHLaaIyFasRY0i-n-21" value="" style="endArrow=none;html=1;rounded=0;" parent="1" edge="1">
          <mxGeometry width="50" height="50" relative="1" as="geometry">
            <mxPoint x="775" y="420" as="sourcePoint" />
            <mxPoint x="845" y="420" as="targetPoint" />
          </mxGeometry>
        </mxCell>
        <mxCell id="t4OKsHLaaIyFasRY0i-n-22" value="" style="rounded=0;whiteSpace=wrap;html=1;" parent="1" vertex="1">
          <mxGeometry x="800" y="400" width="170" height="60" as="geometry" />
        </mxCell>
        <mxCell id="t4OKsHLaaIyFasRY0i-n-23" value="Kaur Tata Usaha Umum" style="text;html=1;align=center;verticalAlign=middle;whiteSpace=wrap;rounded=0;" parent="1" vertex="1">
          <mxGeometry x="825" y="400" width="135" height="30" as="geometry" />
        </mxCell>
        <mxCell id="t4OKsHLaaIyFasRY0i-n-24" value="&lt;span style=&quot;font-size: 13px;&quot;&gt;ALISSA HARDIAWATI&lt;/span&gt;" style="text;html=1;align=center;verticalAlign=middle;whiteSpace=wrap;rounded=0;" parent="1" vertex="1">
          <mxGeometry x="775" y="430" width="220" height="30" as="geometry" />
        </mxCell>
        <mxCell id="t4OKsHLaaIyFasRY0i-n-25" value="" style="endArrow=none;html=1;rounded=0;" parent="1" edge="1">
          <mxGeometry width="50" height="50" relative="1" as="geometry">
            <mxPoint x="450" y="450" as="sourcePoint" />
            <mxPoint x="450" y="190" as="targetPoint" />
          </mxGeometry>
        </mxCell>
        <mxCell id="t4OKsHLaaIyFasRY0i-n-26" value="" style="endArrow=none;html=1;rounded=0;" parent="1" edge="1">
          <mxGeometry width="50" height="50" relative="1" as="geometry">
            <mxPoint x="360" y="320" as="sourcePoint" />
            <mxPoint x="450" y="320" as="targetPoint" />
          </mxGeometry>
        </mxCell>
        <mxCell id="t4OKsHLaaIyFasRY0i-n-27" value="" style="endArrow=none;html=1;rounded=0;" parent="1" edge="1">
          <mxGeometry width="50" height="50" relative="1" as="geometry">
            <mxPoint x="360" y="240" as="sourcePoint" />
            <mxPoint x="360" y="400" as="targetPoint" />
          </mxGeometry>
        </mxCell>
        <mxCell id="t4OKsHLaaIyFasRY0i-n-28" value="" style="endArrow=none;html=1;rounded=0;" parent="1" edge="1">
          <mxGeometry width="50" height="50" relative="1" as="geometry">
            <mxPoint x="280" y="240" as="sourcePoint" />
            <mxPoint x="360" y="240" as="targetPoint" />
          </mxGeometry>
        </mxCell>
        <mxCell id="t4OKsHLaaIyFasRY0i-n-29" value="" style="rounded=0;whiteSpace=wrap;html=1;" parent="1" vertex="1">
          <mxGeometry x="110" y="210" width="170" height="60" as="geometry" />
        </mxCell>
        <mxCell id="t4OKsHLaaIyFasRY0i-n-30" value="Kasi Pemerintahan" style="text;html=1;align=center;verticalAlign=middle;whiteSpace=wrap;rounded=0;" parent="1" vertex="1">
          <mxGeometry x="135" y="210" width="120" height="30" as="geometry" />
        </mxCell>
        <mxCell id="t4OKsHLaaIyFasRY0i-n-31" value="&lt;span style=&quot;font-size: 13px;&quot;&gt;TEDI GANDARA&lt;/span&gt;" style="text;html=1;align=center;verticalAlign=middle;whiteSpace=wrap;rounded=0;" parent="1" vertex="1">
          <mxGeometry x="85" y="240" width="220" height="30" as="geometry" />
        </mxCell>
        <mxCell id="t4OKsHLaaIyFasRY0i-n-32" value="" style="rounded=0;whiteSpace=wrap;html=1;" parent="1" vertex="1">
          <mxGeometry x="110" y="290" width="170" height="60" as="geometry" />
        </mxCell>
        <mxCell id="t4OKsHLaaIyFasRY0i-n-33" value="Kasi Kesejahteraan" style="text;html=1;align=center;verticalAlign=middle;whiteSpace=wrap;rounded=0;" parent="1" vertex="1">
          <mxGeometry x="135" y="290" width="120" height="30" as="geometry" />
        </mxCell>
        <mxCell id="t4OKsHLaaIyFasRY0i-n-34" value="&lt;span style=&quot;font-size: 13px;&quot;&gt;RIVAL RENALDI&lt;/span&gt;" style="text;html=1;align=center;verticalAlign=middle;whiteSpace=wrap;rounded=0;" parent="1" vertex="1">
          <mxGeometry x="85" y="320" width="220" height="30" as="geometry" />
        </mxCell>
        <mxCell id="t4OKsHLaaIyFasRY0i-n-35" value="" style="endArrow=none;html=1;rounded=0;" parent="1" edge="1">
          <mxGeometry width="50" height="50" relative="1" as="geometry">
            <mxPoint x="280" y="320" as="sourcePoint" />
            <mxPoint x="370" y="320" as="targetPoint" />
          </mxGeometry>
        </mxCell>
        <mxCell id="t4OKsHLaaIyFasRY0i-n-36" value="" style="rounded=0;whiteSpace=wrap;html=1;" parent="1" vertex="1">
          <mxGeometry x="110" y="365" width="170" height="60" as="geometry" />
        </mxCell>
        <mxCell id="t4OKsHLaaIyFasRY0i-n-37" value="Kasi Pelayanan" style="text;html=1;align=center;verticalAlign=middle;whiteSpace=wrap;rounded=0;" parent="1" vertex="1">
          <mxGeometry x="135" y="365" width="120" height="30" as="geometry" />
        </mxCell>
        <mxCell id="t4OKsHLaaIyFasRY0i-n-38" value="" style="endArrow=none;html=1;rounded=0;" parent="1" edge="1">
          <mxGeometry width="50" height="50" relative="1" as="geometry">
            <mxPoint x="280" y="400" as="sourcePoint" />
            <mxPoint x="360" y="400" as="targetPoint" />
          </mxGeometry>
        </mxCell>
        <mxCell id="t4OKsHLaaIyFasRY0i-n-39" value="&lt;span style=&quot;font-size: 13px;&quot;&gt;DIKY PRATAMA&lt;/span&gt;" style="text;html=1;align=center;verticalAlign=middle;whiteSpace=wrap;rounded=0;" parent="1" vertex="1">
          <mxGeometry x="85" y="395" width="220" height="30" as="geometry" />
        </mxCell>
        <mxCell id="t4OKsHLaaIyFasRY0i-n-40" value="" style="endArrow=none;html=1;rounded=0;" parent="1" edge="1">
          <mxGeometry width="50" height="50" relative="1" as="geometry">
            <mxPoint x="450" y="520" as="sourcePoint" />
            <mxPoint x="450" y="190" as="targetPoint" />
          </mxGeometry>
        </mxCell>
        <mxCell id="t4OKsHLaaIyFasRY0i-n-41" value="" style="endArrow=none;html=1;rounded=0;" parent="1" edge="1">
          <mxGeometry width="50" height="50" relative="1" as="geometry">
            <mxPoint x="200" y="520" as="sourcePoint" />
            <mxPoint x="910" y="520" as="targetPoint" />
          </mxGeometry>
        </mxCell>
        <mxCell id="t4OKsHLaaIyFasRY0i-n-42" value="" style="endArrow=none;html=1;rounded=0;" parent="1" edge="1">
          <mxGeometry width="50" height="50" relative="1" as="geometry">
            <mxPoint x="200" y="520" as="sourcePoint" />
            <mxPoint x="200" y="560" as="targetPoint" />
          </mxGeometry>
        </mxCell>
        <mxCell id="t4OKsHLaaIyFasRY0i-n-44" value="" style="rounded=0;whiteSpace=wrap;html=1;" parent="1" vertex="1">
          <mxGeometry x="120" y="560" width="170" height="60" as="geometry" />
        </mxCell>
        <mxCell id="t4OKsHLaaIyFasRY0i-n-45" value="Kadus I" style="text;html=1;align=center;verticalAlign=middle;whiteSpace=wrap;rounded=0;" parent="1" vertex="1">
          <mxGeometry x="145" y="560" width="120" height="30" as="geometry" />
        </mxCell>
        <mxCell id="t4OKsHLaaIyFasRY0i-n-46" value="" style="rounded=0;whiteSpace=wrap;html=1;" parent="1" vertex="1">
          <mxGeometry x="370" y="560" width="170" height="60" as="geometry" />
        </mxCell>
        <mxCell id="t4OKsHLaaIyFasRY0i-n-47" value="Kadus II" style="text;html=1;align=center;verticalAlign=middle;whiteSpace=wrap;rounded=0;" parent="1" vertex="1">
          <mxGeometry x="395" y="560" width="120" height="30" as="geometry" />
        </mxCell>
        <mxCell id="t4OKsHLaaIyFasRY0i-n-48" value="" style="rounded=0;whiteSpace=wrap;html=1;" parent="1" vertex="1">
          <mxGeometry x="600" y="560" width="170" height="60" as="geometry" />
        </mxCell>
        <mxCell id="t4OKsHLaaIyFasRY0i-n-49" value="Kadus III" style="text;html=1;align=center;verticalAlign=middle;whiteSpace=wrap;rounded=0;" parent="1" vertex="1">
          <mxGeometry x="625" y="560" width="120" height="30" as="geometry" />
        </mxCell>
        <mxCell id="t4OKsHLaaIyFasRY0i-n-50" value="" style="rounded=0;whiteSpace=wrap;html=1;" parent="1" vertex="1">
          <mxGeometry x="835" y="560" width="170" height="60" as="geometry" />
        </mxCell>
        <mxCell id="t4OKsHLaaIyFasRY0i-n-51" value="Kadus IV" style="text;html=1;align=center;verticalAlign=middle;whiteSpace=wrap;rounded=0;" parent="1" vertex="1">
          <mxGeometry x="855" y="560" width="120" height="30" as="geometry" />
        </mxCell>
        <mxCell id="t4OKsHLaaIyFasRY0i-n-53" value="&lt;span style=&quot;font-size: 13px;&quot;&gt;SOPANDI&amp;nbsp;&lt;/span&gt;" style="text;html=1;align=center;verticalAlign=middle;whiteSpace=wrap;rounded=0;" parent="1" vertex="1">
          <mxGeometry x="95" y="590" width="220" height="30" as="geometry" />
        </mxCell>
        <mxCell id="t4OKsHLaaIyFasRY0i-n-54" value="&lt;span style=&quot;font-size: 13px;&quot;&gt;DADAN H&lt;/span&gt;" style="text;html=1;align=center;verticalAlign=middle;whiteSpace=wrap;rounded=0;" parent="1" vertex="1">
          <mxGeometry x="345" y="590" width="220" height="30" as="geometry" />
        </mxCell>
        <mxCell id="t4OKsHLaaIyFasRY0i-n-55" value="&lt;span style=&quot;font-size: 13px;&quot;&gt;ASEP SOMANTRI&lt;/span&gt;" style="text;html=1;align=center;verticalAlign=middle;whiteSpace=wrap;rounded=0;" parent="1" vertex="1">
          <mxGeometry x="575" y="590" width="220" height="30" as="geometry" />
        </mxCell>
        <mxCell id="t4OKsHLaaIyFasRY0i-n-56" value="&lt;span style=&quot;font-size: 13px;&quot;&gt;AZI HADI M&lt;/span&gt;" style="text;html=1;align=center;verticalAlign=middle;whiteSpace=wrap;rounded=0;" parent="1" vertex="1">
          <mxGeometry x="805" y="590" width="220" height="30" as="geometry" />
        </mxCell>
        <mxCell id="t4OKsHLaaIyFasRY0i-n-57" value="" style="endArrow=none;html=1;rounded=0;" parent="1" edge="1">
          <mxGeometry width="50" height="50" relative="1" as="geometry">
            <mxPoint x="450" y="520" as="sourcePoint" />
            <mxPoint x="450" y="560" as="targetPoint" />
          </mxGeometry>
        </mxCell>
        <mxCell id="t4OKsHLaaIyFasRY0i-n-58" value="" style="endArrow=none;html=1;rounded=0;" parent="1" edge="1">
          <mxGeometry width="50" height="50" relative="1" as="geometry">
            <mxPoint x="684.5" y="520" as="sourcePoint" />
            <mxPoint x="684.5" y="560" as="targetPoint" />
          </mxGeometry>
        </mxCell>
        <mxCell id="t4OKsHLaaIyFasRY0i-n-59" value="" style="endArrow=none;html=1;rounded=0;" parent="1" edge="1">
          <mxGeometry width="50" height="50" relative="1" as="geometry">
            <mxPoint x="910" y="520" as="sourcePoint" />
            <mxPoint x="910" y="560" as="targetPoint" />
          </mxGeometry>
        </mxCell>
      </root>
    </mxGraphModel>
  </diagram>
</mxfile>
